<mxfile host="Electron" agent="Mozilla/5.0 (X11; Linux x86_64) AppleWebKit/537.36 (KHTML, like Gecko) draw.io/27.0.9 Chrome/134.0.6998.205 Electron/35.4.0 Safari/537.36" version="27.0.9">
  <diagram name="Page-1" id="nigkzCqJc1mqQVbag8NK">
    <mxGraphModel dx="1963" dy="531" grid="1" gridSize="10" guides="1" tooltips="1" connect="1" arrows="1" fold="1" page="1" pageScale="1" pageWidth="850" pageHeight="1100" math="0" shadow="0">
      <root>
        <mxCell id="0" />
        <mxCell id="1" parent="0" />
        <mxCell id="iZYH0ZXKbvi6FZnurMp1-1" value="UOC AlumniConnect System" style="whiteSpace=wrap;strokeWidth=2;" vertex="1" parent="1">
          <mxGeometry y="164" width="3457" height="576" as="geometry" />
        </mxCell>
        <mxCell id="iZYH0ZXKbvi6FZnurMp1-2" value="Super Admin Features" style="whiteSpace=wrap;strokeWidth=2;" vertex="1" parent="1">
          <mxGeometry x="1809" y="388" width="1629" height="128" as="geometry" />
        </mxCell>
        <mxCell id="iZYH0ZXKbvi6FZnurMp1-3" value="Faculty Admin Features" style="whiteSpace=wrap;strokeWidth=2;" vertex="1" parent="1">
          <mxGeometry x="1028" y="587" width="1027" height="128" as="geometry" />
        </mxCell>
        <mxCell id="iZYH0ZXKbvi6FZnurMp1-4" value="Alumni Features" style="whiteSpace=wrap;strokeWidth=2;" vertex="1" parent="1">
          <mxGeometry x="738" y="388" width="868" height="128" as="geometry" />
        </mxCell>
        <mxCell id="iZYH0ZXKbvi6FZnurMp1-5" value="Student Features" style="whiteSpace=wrap;strokeWidth=2;" vertex="1" parent="1">
          <mxGeometry x="20" y="189" width="698" height="526" as="geometry" />
        </mxCell>
        <mxCell id="iZYH0ZXKbvi6FZnurMp1-6" value="Shared Features" style="whiteSpace=wrap;strokeWidth=2;" vertex="1" parent="1">
          <mxGeometry x="1160" y="189" width="1478" height="128" as="geometry" />
        </mxCell>
        <mxCell id="iZYH0ZXKbvi6FZnurMp1-7" value="Actors" style="whiteSpace=wrap;strokeWidth=2;" vertex="1" parent="1">
          <mxGeometry x="42" y="10" width="2902" height="104" as="geometry" />
        </mxCell>
        <mxCell id="iZYH0ZXKbvi6FZnurMp1-8" value="Student" style="whiteSpace=wrap;strokeWidth=2;" vertex="1" parent="1">
          <mxGeometry x="743" y="35" width="115" height="54" as="geometry" />
        </mxCell>
        <mxCell id="iZYH0ZXKbvi6FZnurMp1-9" value="Alumni" style="whiteSpace=wrap;strokeWidth=2;" vertex="1" parent="1">
          <mxGeometry x="1539" y="35" width="109" height="54" as="geometry" />
        </mxCell>
        <mxCell id="iZYH0ZXKbvi6FZnurMp1-10" value="Faculty Admin" style="whiteSpace=wrap;strokeWidth=2;" vertex="1" parent="1">
          <mxGeometry x="2435" y="35" width="160" height="54" as="geometry" />
        </mxCell>
        <mxCell id="iZYH0ZXKbvi6FZnurMp1-11" value="Super Admin" style="whiteSpace=wrap;strokeWidth=2;" vertex="1" parent="1">
          <mxGeometry x="2742" y="35" width="152" height="54" as="geometry" />
        </mxCell>
        <mxCell id="iZYH0ZXKbvi6FZnurMp1-12" value="Register for Account" style="rounded=1;arcSize=20;strokeWidth=2" vertex="1" parent="1">
          <mxGeometry x="1966" y="226" width="174" height="54" as="geometry" />
        </mxCell>
        <mxCell id="iZYH0ZXKbvi6FZnurMp1-13" value="Login to System" style="rounded=1;arcSize=20;strokeWidth=2" vertex="1" parent="1">
          <mxGeometry x="2319" y="226" width="145" height="54" as="geometry" />
        </mxCell>
        <mxCell id="iZYH0ZXKbvi6FZnurMp1-14" value="Logout" style="rounded=1;arcSize=20;strokeWidth=2" vertex="1" parent="1">
          <mxGeometry x="2190" y="226" width="79" height="54" as="geometry" />
        </mxCell>
        <mxCell id="iZYH0ZXKbvi6FZnurMp1-15" value="Manage Own Profile" style="rounded=1;arcSize=20;strokeWidth=2" vertex="1" parent="1">
          <mxGeometry x="1741" y="226" width="175" height="54" as="geometry" />
        </mxCell>
        <mxCell id="iZYH0ZXKbvi6FZnurMp1-16" value="Participate in Forums" style="rounded=1;arcSize=20;strokeWidth=2" vertex="1" parent="1">
          <mxGeometry x="1510" y="226" width="181" height="54" as="geometry" />
        </mxCell>
        <mxCell id="iZYH0ZXKbvi6FZnurMp1-17" value="View Events &amp; Announcements" style="rounded=1;arcSize=20;strokeWidth=2" vertex="1" parent="1">
          <mxGeometry x="1230" y="214" width="230" height="78" as="geometry" />
        </mxCell>
        <mxCell id="iZYH0ZXKbvi6FZnurMp1-18" value="Request Aid &amp; Mentorship" style="rounded=1;arcSize=20;strokeWidth=2" vertex="1" parent="1">
          <mxGeometry x="468" y="226" width="215" height="54" as="geometry" />
        </mxCell>
        <mxCell id="iZYH0ZXKbvi6FZnurMp1-19" value="Manage Own Requests" style="rounded=1;arcSize=20;strokeWidth=2" vertex="1" parent="1">
          <mxGeometry x="221" y="226" width="197" height="54" as="geometry" />
        </mxCell>
        <mxCell id="iZYH0ZXKbvi6FZnurMp1-20" value="Search Alumni Directory" style="rounded=1;arcSize=20;strokeWidth=2" vertex="1" parent="1">
          <mxGeometry x="143" y="425" width="202" height="54" as="geometry" />
        </mxCell>
        <mxCell id="iZYH0ZXKbvi6FZnurMp1-21" value="Rate &amp; Review Alumnus" style="rounded=1;arcSize=20;strokeWidth=2" vertex="1" parent="1">
          <mxGeometry x="55" y="624" width="202" height="54" as="geometry" />
        </mxCell>
        <mxCell id="iZYH0ZXKbvi6FZnurMp1-22" value="View &amp; Respond to Aid Requests" style="rounded=1;arcSize=20;strokeWidth=2" vertex="1" parent="1">
          <mxGeometry x="773" y="413" width="230" height="78" as="geometry" />
        </mxCell>
        <mxCell id="iZYH0ZXKbvi6FZnurMp1-23" value="Publish Events or Jobs" style="rounded=1;arcSize=20;strokeWidth=2" vertex="1" parent="1">
          <mxGeometry x="1378" y="425" width="193" height="54" as="geometry" />
        </mxCell>
        <mxCell id="iZYH0ZXKbvi6FZnurMp1-24" value="Join Faculty Groups" style="rounded=1;arcSize=20;strokeWidth=2" vertex="1" parent="1">
          <mxGeometry x="1156" y="425" width="172" height="54" as="geometry" />
        </mxCell>
        <mxCell id="iZYH0ZXKbvi6FZnurMp1-25" value="Approve Group Membership" style="rounded=1;arcSize=20;strokeWidth=2" vertex="1" parent="1">
          <mxGeometry x="1449" y="612" width="230" height="78" as="geometry" />
        </mxCell>
        <mxCell id="iZYH0ZXKbvi6FZnurMp1-26" value="Moderate Faculty-Specific Content" style="rounded=1;arcSize=20;strokeWidth=2" vertex="1" parent="1">
          <mxGeometry x="1791" y="612" width="230" height="78" as="geometry" />
        </mxCell>
        <mxCell id="iZYH0ZXKbvi6FZnurMp1-27" value="View Faculty Analytics" style="rounded=1;arcSize=20;strokeWidth=2" vertex="1" parent="1">
          <mxGeometry x="1211" y="624" width="188" height="54" as="geometry" />
        </mxCell>
        <mxCell id="iZYH0ZXKbvi6FZnurMp1-28" value="Approve User Registrations" style="rounded=1;arcSize=20;strokeWidth=2" vertex="1" parent="1">
          <mxGeometry x="2356" y="425" width="226" height="54" as="geometry" />
        </mxCell>
        <mxCell id="iZYH0ZXKbvi6FZnurMp1-29" value="Manage All Users (CRUD, Ban)" style="rounded=1;arcSize=20;strokeWidth=2" vertex="1" parent="1">
          <mxGeometry x="3172" y="413" width="230" height="78" as="geometry" />
        </mxCell>
        <mxCell id="iZYH0ZXKbvi6FZnurMp1-30" value="Moderate All Platform Content" style="rounded=1;arcSize=20;strokeWidth=2" vertex="1" parent="1">
          <mxGeometry x="2892" y="413" width="230" height="78" as="geometry" />
        </mxCell>
        <mxCell id="iZYH0ZXKbvi6FZnurMp1-31" value="Manage System Settings &amp; Categories" style="rounded=1;arcSize=20;strokeWidth=2" vertex="1" parent="1">
          <mxGeometry x="2076" y="413" width="230" height="78" as="geometry" />
        </mxCell>
        <mxCell id="iZYH0ZXKbvi6FZnurMp1-32" value="View Global Analytics" style="rounded=1;arcSize=20;strokeWidth=2" vertex="1" parent="1">
          <mxGeometry x="1844" y="425" width="183" height="54" as="geometry" />
        </mxCell>
        <mxCell id="iZYH0ZXKbvi6FZnurMp1-33" value="" style="curved=1;startArrow=none;endArrow=none;exitX=1;exitY=0.64;entryX=0;entryY=0.24;rounded=0;" edge="1" parent="1" source="iZYH0ZXKbvi6FZnurMp1-8" target="iZYH0ZXKbvi6FZnurMp1-12">
          <mxGeometry relative="1" as="geometry">
            <Array as="points">
              <mxPoint x="1190" y="114" />
              <mxPoint x="1190" y="164" />
              <mxPoint x="1659" y="189" />
            </Array>
          </mxGeometry>
        </mxCell>
        <mxCell id="iZYH0ZXKbvi6FZnurMp1-34" value="" style="curved=1;startArrow=none;endArrow=none;exitX=1;exitY=0.58;entryX=0.93;entryY=0;rounded=0;" edge="1" parent="1" source="iZYH0ZXKbvi6FZnurMp1-9" target="iZYH0ZXKbvi6FZnurMp1-12">
          <mxGeometry relative="1" as="geometry">
            <Array as="points">
              <mxPoint x="2232" y="114" />
              <mxPoint x="2232" y="189" />
            </Array>
          </mxGeometry>
        </mxCell>
        <mxCell id="iZYH0ZXKbvi6FZnurMp1-35" value="" style="curved=1;startArrow=none;endArrow=none;exitX=1;exitY=0.65;entryX=0;entryY=0.39;rounded=0;" edge="1" parent="1" source="iZYH0ZXKbvi6FZnurMp1-8" target="iZYH0ZXKbvi6FZnurMp1-13">
          <mxGeometry relative="1" as="geometry">
            <Array as="points">
              <mxPoint x="1170" y="114" />
              <mxPoint x="1170" y="164" />
              <mxPoint x="1639" y="189" />
            </Array>
          </mxGeometry>
        </mxCell>
        <mxCell id="iZYH0ZXKbvi6FZnurMp1-36" value="" style="curved=1;startArrow=none;endArrow=none;exitX=1;exitY=0.6;entryX=0;entryY=0.17;rounded=0;" edge="1" parent="1" source="iZYH0ZXKbvi6FZnurMp1-9" target="iZYH0ZXKbvi6FZnurMp1-13">
          <mxGeometry relative="1" as="geometry">
            <Array as="points">
              <mxPoint x="2130" y="114" />
              <mxPoint x="2130" y="189" />
            </Array>
          </mxGeometry>
        </mxCell>
        <mxCell id="iZYH0ZXKbvi6FZnurMp1-37" value="" style="curved=1;startArrow=none;endArrow=none;exitX=0.8;exitY=1;entryX=0.83;entryY=0;rounded=0;" edge="1" parent="1" source="iZYH0ZXKbvi6FZnurMp1-10" target="iZYH0ZXKbvi6FZnurMp1-13">
          <mxGeometry relative="1" as="geometry">
            <Array as="points">
              <mxPoint x="2608" y="114" />
              <mxPoint x="2608" y="164" />
              <mxPoint x="2504" y="189" />
            </Array>
          </mxGeometry>
        </mxCell>
        <mxCell id="iZYH0ZXKbvi6FZnurMp1-38" value="" style="curved=1;startArrow=none;endArrow=none;exitX=0.71;exitY=1;entryX=1;entryY=0.08;rounded=0;" edge="1" parent="1" source="iZYH0ZXKbvi6FZnurMp1-11" target="iZYH0ZXKbvi6FZnurMp1-13">
          <mxGeometry relative="1" as="geometry">
            <Array as="points">
              <mxPoint x="2878" y="114" />
              <mxPoint x="2878" y="164" />
              <mxPoint x="2594" y="189" />
            </Array>
          </mxGeometry>
        </mxCell>
        <mxCell id="iZYH0ZXKbvi6FZnurMp1-39" value="" style="curved=1;startArrow=none;endArrow=none;exitX=1;exitY=0.66;entryX=0;entryY=0.42;rounded=0;" edge="1" parent="1" source="iZYH0ZXKbvi6FZnurMp1-8" target="iZYH0ZXKbvi6FZnurMp1-14">
          <mxGeometry relative="1" as="geometry">
            <Array as="points">
              <mxPoint x="1150" y="114" />
              <mxPoint x="1150" y="164" />
              <mxPoint x="1619" y="189" />
            </Array>
          </mxGeometry>
        </mxCell>
        <mxCell id="iZYH0ZXKbvi6FZnurMp1-40" value="" style="curved=1;startArrow=none;endArrow=none;exitX=1;exitY=0.62;entryX=0;entryY=0.25;rounded=0;" edge="1" parent="1" source="iZYH0ZXKbvi6FZnurMp1-9" target="iZYH0ZXKbvi6FZnurMp1-14">
          <mxGeometry relative="1" as="geometry">
            <Array as="points">
              <mxPoint x="2039" y="114" />
              <mxPoint x="2039" y="189" />
            </Array>
          </mxGeometry>
        </mxCell>
        <mxCell id="iZYH0ZXKbvi6FZnurMp1-41" value="" style="curved=1;startArrow=none;endArrow=none;exitX=0.74;exitY=1;entryX=1;entryY=0.25;rounded=0;" edge="1" parent="1" source="iZYH0ZXKbvi6FZnurMp1-10" target="iZYH0ZXKbvi6FZnurMp1-14">
          <mxGeometry relative="1" as="geometry">
            <Array as="points">
              <mxPoint x="2588" y="114" />
              <mxPoint x="2588" y="164" />
              <mxPoint x="2413" y="189" />
            </Array>
          </mxGeometry>
        </mxCell>
        <mxCell id="iZYH0ZXKbvi6FZnurMp1-42" value="" style="curved=1;startArrow=none;endArrow=none;exitX=0.64;exitY=1;entryX=1;entryY=0.36;rounded=0;" edge="1" parent="1" source="iZYH0ZXKbvi6FZnurMp1-11" target="iZYH0ZXKbvi6FZnurMp1-14">
          <mxGeometry relative="1" as="geometry">
            <Array as="points">
              <mxPoint x="2858" y="114" />
              <mxPoint x="2858" y="164" />
              <mxPoint x="2574" y="189" />
            </Array>
          </mxGeometry>
        </mxCell>
        <mxCell id="iZYH0ZXKbvi6FZnurMp1-43" value="" style="curved=1;startArrow=none;endArrow=none;exitX=1;exitY=0.67;entryX=0;entryY=0.17;rounded=0;" edge="1" parent="1" source="iZYH0ZXKbvi6FZnurMp1-8" target="iZYH0ZXKbvi6FZnurMp1-15">
          <mxGeometry relative="1" as="geometry">
            <Array as="points">
              <mxPoint x="1130" y="114" />
              <mxPoint x="1130" y="164" />
              <mxPoint x="1517" y="189" />
            </Array>
          </mxGeometry>
        </mxCell>
        <mxCell id="iZYH0ZXKbvi6FZnurMp1-44" value="" style="curved=1;startArrow=none;endArrow=none;exitX=1;exitY=0.62;entryX=0.96;entryY=0;rounded=0;" edge="1" parent="1" source="iZYH0ZXKbvi6FZnurMp1-9" target="iZYH0ZXKbvi6FZnurMp1-15">
          <mxGeometry relative="1" as="geometry">
            <Array as="points">
              <mxPoint x="2019" y="114" />
              <mxPoint x="2019" y="189" />
            </Array>
          </mxGeometry>
        </mxCell>
        <mxCell id="iZYH0ZXKbvi6FZnurMp1-45" value="" style="curved=1;startArrow=none;endArrow=none;exitX=1;exitY=0.68;entryX=0.02;entryY=0;rounded=0;" edge="1" parent="1" source="iZYH0ZXKbvi6FZnurMp1-8" target="iZYH0ZXKbvi6FZnurMp1-16">
          <mxGeometry relative="1" as="geometry">
            <Array as="points">
              <mxPoint x="1110" y="114" />
              <mxPoint x="1110" y="164" />
              <mxPoint x="1393" y="189" />
            </Array>
          </mxGeometry>
        </mxCell>
        <mxCell id="iZYH0ZXKbvi6FZnurMp1-46" value="" style="curved=1;startArrow=none;endArrow=none;exitX=1;exitY=0.67;entryX=1;entryY=0.14;rounded=0;" edge="1" parent="1" source="iZYH0ZXKbvi6FZnurMp1-9" target="iZYH0ZXKbvi6FZnurMp1-16">
          <mxGeometry relative="1" as="geometry">
            <Array as="points">
              <mxPoint x="1895" y="114" />
              <mxPoint x="1895" y="189" />
            </Array>
          </mxGeometry>
        </mxCell>
        <mxCell id="iZYH0ZXKbvi6FZnurMp1-47" value="" style="curved=1;startArrow=none;endArrow=none;exitX=1;exitY=0.69;entryX=0.26;entryY=0;rounded=0;" edge="1" parent="1" source="iZYH0ZXKbvi6FZnurMp1-8" target="iZYH0ZXKbvi6FZnurMp1-17">
          <mxGeometry relative="1" as="geometry">
            <Array as="points">
              <mxPoint x="1090" y="114" />
              <mxPoint x="1090" y="164" />
              <mxPoint x="1255" y="189" />
            </Array>
          </mxGeometry>
        </mxCell>
        <mxCell id="iZYH0ZXKbvi6FZnurMp1-48" value="" style="curved=1;startArrow=none;endArrow=none;exitX=1;exitY=0.82;entryX=1;entryY=0.27;rounded=0;" edge="1" parent="1" source="iZYH0ZXKbvi6FZnurMp1-9" target="iZYH0ZXKbvi6FZnurMp1-17">
          <mxGeometry relative="1" as="geometry">
            <Array as="points">
              <mxPoint x="1757" y="114" />
              <mxPoint x="1757" y="189" />
            </Array>
          </mxGeometry>
        </mxCell>
        <mxCell id="iZYH0ZXKbvi6FZnurMp1-49" value="" style="curved=1;startArrow=none;endArrow=none;exitX=0;exitY=0.75;entryX=0.5;entryY=0;rounded=0;" edge="1" parent="1" source="iZYH0ZXKbvi6FZnurMp1-8" target="iZYH0ZXKbvi6FZnurMp1-18">
          <mxGeometry relative="1" as="geometry">
            <Array as="points">
              <mxPoint x="576" y="114" />
            </Array>
          </mxGeometry>
        </mxCell>
        <mxCell id="iZYH0ZXKbvi6FZnurMp1-50" value="" style="curved=1;startArrow=none;endArrow=none;exitX=0;exitY=0.62;entryX=0.5;entryY=0;rounded=0;" edge="1" parent="1" source="iZYH0ZXKbvi6FZnurMp1-8" target="iZYH0ZXKbvi6FZnurMp1-19">
          <mxGeometry relative="1" as="geometry">
            <Array as="points">
              <mxPoint x="319" y="114" />
            </Array>
          </mxGeometry>
        </mxCell>
        <mxCell id="iZYH0ZXKbvi6FZnurMp1-51" value="" style="curved=1;startArrow=none;endArrow=none;exitX=0;exitY=0.59;entryX=0.38;entryY=0;rounded=0;" edge="1" parent="1" source="iZYH0ZXKbvi6FZnurMp1-8" target="iZYH0ZXKbvi6FZnurMp1-20">
          <mxGeometry relative="1" as="geometry">
            <Array as="points">
              <mxPoint x="186" y="114" />
              <mxPoint x="186" y="388" />
            </Array>
          </mxGeometry>
        </mxCell>
        <mxCell id="iZYH0ZXKbvi6FZnurMp1-52" value="" style="curved=1;startArrow=none;endArrow=none;exitX=0;exitY=0.58;entryX=0.4;entryY=0;rounded=0;" edge="1" parent="1" source="iZYH0ZXKbvi6FZnurMp1-8" target="iZYH0ZXKbvi6FZnurMp1-21">
          <mxGeometry relative="1" as="geometry">
            <Array as="points">
              <mxPoint x="108" y="114" />
              <mxPoint x="108" y="587" />
            </Array>
          </mxGeometry>
        </mxCell>
        <mxCell id="iZYH0ZXKbvi6FZnurMp1-53" value="" style="curved=1;startArrow=none;endArrow=none;exitX=0;exitY=0.65;entryX=1;entryY=0.13;rounded=0;" edge="1" parent="1" source="iZYH0ZXKbvi6FZnurMp1-9" target="iZYH0ZXKbvi6FZnurMp1-22">
          <mxGeometry relative="1" as="geometry">
            <Array as="points">
              <mxPoint x="1250" y="114" />
              <mxPoint x="1250" y="164" />
              <mxPoint x="1140" y="189" />
              <mxPoint x="1140" y="388" />
            </Array>
          </mxGeometry>
        </mxCell>
        <mxCell id="iZYH0ZXKbvi6FZnurMp1-54" value="" style="curved=1;startArrow=none;endArrow=none;exitX=0;exitY=0.64;entryX=0;entryY=0.18;rounded=0;" edge="1" parent="1" source="iZYH0ZXKbvi6FZnurMp1-9" target="iZYH0ZXKbvi6FZnurMp1-23">
          <mxGeometry relative="1" as="geometry">
            <Array as="points">
              <mxPoint x="1230" y="114" />
              <mxPoint x="1230" y="164" />
              <mxPoint x="1120" y="189" />
              <mxPoint x="1120" y="388" />
            </Array>
          </mxGeometry>
        </mxCell>
        <mxCell id="iZYH0ZXKbvi6FZnurMp1-55" value="" style="curved=1;startArrow=none;endArrow=none;exitX=0;exitY=0.64;entryX=0;entryY=0.09;rounded=0;" edge="1" parent="1" source="iZYH0ZXKbvi6FZnurMp1-9" target="iZYH0ZXKbvi6FZnurMp1-24">
          <mxGeometry relative="1" as="geometry">
            <Array as="points">
              <mxPoint x="1210" y="114" />
              <mxPoint x="1210" y="164" />
              <mxPoint x="994" y="189" />
              <mxPoint x="994" y="388" />
            </Array>
          </mxGeometry>
        </mxCell>
        <mxCell id="iZYH0ZXKbvi6FZnurMp1-56" value="" style="curved=1;startArrow=none;endArrow=none;exitX=0.67;exitY=1;entryX=1;entryY=0.08;rounded=0;" edge="1" parent="1" source="iZYH0ZXKbvi6FZnurMp1-10" target="iZYH0ZXKbvi6FZnurMp1-25">
          <mxGeometry relative="1" as="geometry">
            <Array as="points">
              <mxPoint x="2568" y="114" />
              <mxPoint x="2568" y="164" />
              <mxPoint x="2808" y="189" />
              <mxPoint x="2808" y="353" />
              <mxPoint x="1789" y="388" />
              <mxPoint x="1789" y="587" />
            </Array>
          </mxGeometry>
        </mxCell>
        <mxCell id="iZYH0ZXKbvi6FZnurMp1-57" value="" style="curved=1;startArrow=none;endArrow=none;exitX=0.61;exitY=1;entryX=0;entryY=0.14;rounded=0;" edge="1" parent="1" source="iZYH0ZXKbvi6FZnurMp1-10" target="iZYH0ZXKbvi6FZnurMp1-26">
          <mxGeometry relative="1" as="geometry">
            <Array as="points">
              <mxPoint x="2548" y="114" />
              <mxPoint x="2548" y="164" />
              <mxPoint x="2788" y="189" />
              <mxPoint x="2788" y="353" />
              <mxPoint x="1646" y="388" />
              <mxPoint x="1646" y="587" />
            </Array>
          </mxGeometry>
        </mxCell>
        <mxCell id="iZYH0ZXKbvi6FZnurMp1-58" value="" style="curved=1;startArrow=none;endArrow=none;exitX=0.37;exitY=1;entryX=1;entryY=0.15;rounded=0;" edge="1" parent="1" source="iZYH0ZXKbvi6FZnurMp1-10" target="iZYH0ZXKbvi6FZnurMp1-27">
          <mxGeometry relative="1" as="geometry">
            <Array as="points">
              <mxPoint x="2475" y="114" />
              <mxPoint x="2475" y="164" />
              <mxPoint x="2658" y="189" />
              <mxPoint x="2658" y="353" />
              <mxPoint x="1626" y="388" />
              <mxPoint x="1626" y="587" />
            </Array>
          </mxGeometry>
        </mxCell>
        <mxCell id="iZYH0ZXKbvi6FZnurMp1-59" value="" style="curved=1;startArrow=none;endArrow=none;exitX=0.57;exitY=1;entryX=1;entryY=0.34;rounded=0;" edge="1" parent="1" source="iZYH0ZXKbvi6FZnurMp1-11" target="iZYH0ZXKbvi6FZnurMp1-28">
          <mxGeometry relative="1" as="geometry">
            <Array as="points">
              <mxPoint x="2838" y="114" />
              <mxPoint x="2838" y="164" />
              <mxPoint x="3322" y="189" />
              <mxPoint x="3322" y="388" />
            </Array>
          </mxGeometry>
        </mxCell>
        <mxCell id="iZYH0ZXKbvi6FZnurMp1-60" value="" style="curved=1;startArrow=none;endArrow=none;exitX=0.5;exitY=1;entryX=0.5;entryY=0;rounded=0;" edge="1" parent="1" source="iZYH0ZXKbvi6FZnurMp1-11" target="iZYH0ZXKbvi6FZnurMp1-29">
          <mxGeometry relative="1" as="geometry">
            <Array as="points">
              <mxPoint x="2818" y="164" />
              <mxPoint x="3287" y="189" />
              <mxPoint x="3287" y="388" />
            </Array>
          </mxGeometry>
        </mxCell>
        <mxCell id="iZYH0ZXKbvi6FZnurMp1-61" value="" style="curved=1;startArrow=none;endArrow=none;exitX=0;exitY=0.99;entryX=0.5;entryY=0;rounded=0;" edge="1" parent="1" source="iZYH0ZXKbvi6FZnurMp1-11" target="iZYH0ZXKbvi6FZnurMp1-30">
          <mxGeometry relative="1" as="geometry">
            <Array as="points">
              <mxPoint x="2668" y="114" />
              <mxPoint x="2668" y="164" />
              <mxPoint x="3007" y="189" />
              <mxPoint x="3007" y="388" />
            </Array>
          </mxGeometry>
        </mxCell>
        <mxCell id="iZYH0ZXKbvi6FZnurMp1-62" value="" style="curved=1;startArrow=none;endArrow=none;exitX=0;exitY=0.93;entryX=1;entryY=0.38;rounded=0;" edge="1" parent="1" source="iZYH0ZXKbvi6FZnurMp1-11" target="iZYH0ZXKbvi6FZnurMp1-31">
          <mxGeometry relative="1" as="geometry">
            <Array as="points">
              <mxPoint x="2648" y="114" />
              <mxPoint x="2648" y="164" />
              <mxPoint x="2987" y="189" />
              <mxPoint x="2987" y="388" />
            </Array>
          </mxGeometry>
        </mxCell>
        <mxCell id="iZYH0ZXKbvi6FZnurMp1-63" value="" style="curved=1;startArrow=none;endArrow=none;exitX=0;exitY=0.88;entryX=1;entryY=0.39;rounded=0;" edge="1" parent="1" source="iZYH0ZXKbvi6FZnurMp1-11" target="iZYH0ZXKbvi6FZnurMp1-32">
          <mxGeometry relative="1" as="geometry">
            <Array as="points">
              <mxPoint x="2628" y="114" />
              <mxPoint x="2628" y="164" />
              <mxPoint x="2911" y="189" />
              <mxPoint x="2911" y="388" />
            </Array>
          </mxGeometry>
        </mxCell>
        <mxCell id="iZYH0ZXKbvi6FZnurMp1-64" value="&amp;lt;&amp;gt;" style="curved=1;dashed=1;dashPattern=2 3;startArrow=none;endArrow=block;exitX=0.5;exitY=1;entryX=0.19;entryY=0;rounded=0;" edge="1" parent="1" source="iZYH0ZXKbvi6FZnurMp1-12" target="iZYH0ZXKbvi6FZnurMp1-28">
          <mxGeometry relative="1" as="geometry">
            <Array as="points">
              <mxPoint x="2053" y="353" />
              <mxPoint x="2305" y="388" />
            </Array>
          </mxGeometry>
        </mxCell>
        <mxCell id="iZYH0ZXKbvi6FZnurMp1-65" value="&amp;lt;&amp;gt;" style="curved=1;dashed=1;dashPattern=2 3;startArrow=none;endArrow=block;exitX=0.5;exitY=1;entryX=0;entryY=0.21;rounded=0;" edge="1" parent="1" source="iZYH0ZXKbvi6FZnurMp1-24" target="iZYH0ZXKbvi6FZnurMp1-25">
          <mxGeometry relative="1" as="geometry">
            <Array as="points">
              <mxPoint x="1242" y="587" />
            </Array>
          </mxGeometry>
        </mxCell>
        <mxCell id="iZYH0ZXKbvi6FZnurMp1-66" value="&amp;lt;&amp;gt;" style="curved=1;dashed=1;dashPattern=2 3;startArrow=none;endArrow=block;exitX=0.59;exitY=1;entryX=0;entryY=0.14;rounded=0;" edge="1" parent="1" source="iZYH0ZXKbvi6FZnurMp1-18" target="iZYH0ZXKbvi6FZnurMp1-22">
          <mxGeometry relative="1" as="geometry">
            <Array as="points">
              <mxPoint x="623" y="317" />
              <mxPoint x="623" y="388" />
            </Array>
          </mxGeometry>
        </mxCell>
        <mxCell id="iZYH0ZXKbvi6FZnurMp1-67" value="&amp;lt;&amp;gt;" style="curved=1;dashed=1;dashPattern=2 3;startArrow=none;endArrow=block;exitX=0.5;exitY=1;entryX=1;entryY=0.11;rounded=0;" edge="1" parent="1" source="iZYH0ZXKbvi6FZnurMp1-22" target="iZYH0ZXKbvi6FZnurMp1-21">
          <mxGeometry relative="1" as="geometry">
            <Array as="points">
              <mxPoint x="888" y="516" />
              <mxPoint x="466" y="552" />
              <mxPoint x="466" y="587" />
            </Array>
          </mxGeometry>
        </mxCell>
        <mxCell id="iZYH0ZXKbvi6FZnurMp1-68" value="&amp;lt;&amp;gt;" style="curved=1;dashed=1;dashPattern=2 3;startArrow=none;endArrow=block;exitX=0.23;exitY=1;entryX=0.91;entryY=0;rounded=0;" edge="1" parent="1" source="iZYH0ZXKbvi6FZnurMp1-18" target="iZYH0ZXKbvi6FZnurMp1-20">
          <mxGeometry relative="1" as="geometry">
            <Array as="points">
              <mxPoint x="439" y="317" />
              <mxPoint x="439" y="388" />
            </Array>
          </mxGeometry>
        </mxCell>
      </root>
    </mxGraphModel>
  </diagram>
</mxfile>
